<svg width="78" height="99" viewBox="0 0 78 99" fill="none" xmlns="http://www.w3.org/2000/svg">
<ellipse cx="59.6911" cy="59.6515" rx="17.6911" ry="17.5" fill="#9980FF"/>
<path d="M26.7081 71.836C21.5528 71.836 17.3728 69.537 14.1681 64.939C11.0099 60.2946 9.43079 53.9781 9.43079 45.9897C9.43079 37.9548 10.9402 31.6848 13.9591 27.1797C17.0245 22.6281 21.2741 20.3523 26.7081 20.3523C32.1421 20.3523 36.3686 22.6281 39.3875 27.1797C42.4063 31.6848 43.9158 37.9548 43.9158 45.9897C43.9158 53.9781 42.3367 60.2946 39.1785 64.939C36.0202 69.537 31.8635 71.836 26.7081 71.836ZM16.6761 29.3393C14.261 33.2871 13.0535 38.8604 13.0535 46.0593C13.0535 53.2582 14.261 58.8548 16.6761 62.849C19.0912 66.7968 22.4352 68.7707 26.7081 68.7707C31.0275 68.7707 34.3715 66.7968 36.7401 62.849C39.1088 58.8548 40.2931 53.2582 40.2931 46.0593C40.2931 38.8604 39.1088 33.2871 36.7401 29.3393C34.3715 25.3916 31.0275 23.4177 26.7081 23.4177C22.4352 23.4177 19.0912 25.3916 16.6761 29.3393ZM56.1962 21.1883V71H52.8522V25.438L44.9798 29.618L43.7955 27.4583L54.1062 21.1883H56.1962Z" fill="#2D2D2D"/>
</svg>
