<svg width="88" height="99" viewBox="0 0 88 99" fill="none" xmlns="http://www.w3.org/2000/svg">
<ellipse cx="70.0002" cy="59.6515" rx="17.6911" ry="17.5" fill="#9980FF"/>
<path d="M24.0698 72.836C18.9145 72.836 14.7345 70.537 11.5298 65.939C8.37159 61.2946 6.79248 54.9781 6.79248 46.9897C6.79248 38.9548 8.30192 32.6848 11.3208 28.1797C14.3861 23.6281 18.6358 21.3523 24.0698 21.3523C29.5038 21.3523 33.7303 23.6281 36.7491 28.1797C39.768 32.6848 41.2775 38.9548 41.2775 46.9897C41.2775 54.9781 39.6984 61.2946 36.5401 65.939C33.3819 70.537 29.2251 72.836 24.0698 72.836ZM14.0378 30.3393C11.6227 34.2871 10.4151 39.8604 10.4151 47.0593C10.4151 54.2582 11.6227 59.8548 14.0378 63.849C16.4529 67.7968 19.7969 69.7707 24.0698 69.7707C28.3891 69.7707 31.7331 67.7968 34.1018 63.849C36.4705 59.8548 37.6548 54.2582 37.6548 47.0593C37.6548 39.8604 36.4705 34.2871 34.1018 30.3393C31.7331 26.3916 28.3891 24.4177 24.0698 24.4177C19.7969 24.4177 16.4529 26.3916 14.0378 30.3393ZM44.456 72V69.283C52.6302 62.4557 59.1325 56.0463 63.9627 50.055C68.7929 44.0637 71.208 39.0477 71.208 35.007C71.208 30.9663 70.2327 28.2029 68.282 26.7167C66.3778 25.184 63.475 24.4177 59.5737 24.4177C55.6724 24.4177 51.6781 25.1376 47.591 26.5773L46.755 23.7907C51.3066 22.1651 55.742 21.3523 60.0614 21.3523C64.4271 21.3523 67.9801 22.3973 70.7204 24.4873C73.4606 26.5773 74.8307 29.9446 74.8307 34.589C74.8307 39.187 72.5549 44.4584 68.0034 50.4033C63.4518 56.3482 57.3444 62.595 49.681 69.1437H77.478V72H44.456Z" fill="#2D2D2D"/>
</svg>
