<svg width="89" height="99" viewBox="0 0 89 99" fill="none" xmlns="http://www.w3.org/2000/svg">
<ellipse cx="71.0002" cy="59.6515" rx="17.6911" ry="17.5" fill="#9980FF"/>
<path d="M24.7502 72.836C19.5948 72.836 15.4148 70.537 12.2102 65.939C9.05193 61.2946 7.47282 54.9781 7.47282 46.9897C7.47282 38.9548 8.98226 32.6848 12.0012 28.1797C15.0665 23.6281 19.3162 21.3523 24.7502 21.3523C30.1842 21.3523 34.4106 23.6281 37.4295 28.1797C40.4484 32.6848 41.9578 38.9548 41.9578 46.9897C41.9578 54.9781 40.3787 61.2946 37.2205 65.939C34.0623 70.537 29.9055 72.836 24.7502 72.836ZM14.7182 30.3393C12.303 34.2871 11.0955 39.8604 11.0955 47.0593C11.0955 54.2582 12.303 59.8548 14.7182 63.849C17.1333 67.7968 20.4773 69.7707 24.7502 69.7707C29.0695 69.7707 32.4135 67.7968 34.7822 63.849C37.1508 59.8548 38.3352 54.2582 38.3352 47.0593C38.3352 39.8604 37.1508 34.2871 34.7822 30.3393C32.4135 26.3916 29.0695 24.4177 24.7502 24.4177C20.4773 24.4177 17.1333 26.3916 14.7182 30.3393ZM47.4109 23.8603C51.9624 22.1419 56.1656 21.2827 60.0205 21.2827C63.9219 21.2827 67.0801 22.2116 69.4952 24.0693C71.9103 25.8807 73.1179 28.1564 73.1179 30.8967C73.1179 33.6369 72.2122 36.1217 70.4009 38.351C68.636 40.5803 66.4995 42.3684 63.9915 43.7153C67.4284 44.6442 70.2615 46.2233 72.4909 48.4527C74.7202 50.6356 75.8349 53.4687 75.8349 56.952C75.8349 61.55 74.1164 65.3817 70.6795 68.447C67.2426 71.5123 63.0859 73.045 58.2092 73.045C53.3325 73.045 48.9435 72.0697 45.0422 70.119L46.1569 67.5413C49.3151 69.1669 53.1235 69.9797 57.5822 69.9797C62.0409 69.9797 65.5939 68.7721 68.2412 66.357C70.8885 63.8954 72.2122 60.7604 72.2122 56.952C72.2122 54.4904 71.3065 52.354 69.4952 50.5427C67.6839 48.7313 65.5939 47.4309 63.2252 46.6413C60.8565 45.8518 58.5343 45.457 56.2585 45.457C56.1192 45.457 55.9799 45.457 55.8405 45.457V43.0883C59.231 42.9026 62.366 41.5789 65.2455 39.1173C68.1251 36.6093 69.5649 33.9852 69.5649 31.245C69.5649 29.2014 68.6824 27.5527 66.9175 26.2987C65.1991 24.9982 62.6446 24.348 59.2542 24.348C55.8638 24.348 52.1714 25.0447 48.1772 26.438L47.4109 23.8603Z" fill="#2D2D2D"/>
</svg>
