<svg width="87" height="99" viewBox="0 0 87 99" fill="none" xmlns="http://www.w3.org/2000/svg">
<ellipse cx="69.0002" cy="59.6515" rx="17.6911" ry="17.5" fill="#9980FF"/>
<path d="M26.0768 72.836C20.9215 72.836 16.7415 70.537 13.5368 65.939C10.3786 61.2946 8.79948 54.9781 8.79948 46.9897C8.79948 38.9548 10.3089 32.6848 13.3278 28.1797C16.3931 23.6281 20.6428 21.3523 26.0768 21.3523C31.5108 21.3523 35.7373 23.6281 38.7561 28.1797C41.775 32.6848 43.2845 38.9548 43.2845 46.9897C43.2845 54.9781 41.7054 61.2946 38.5471 65.939C35.3889 70.537 31.2321 72.836 26.0768 72.836ZM16.0448 30.3393C13.6297 34.2871 12.4221 39.8604 12.4221 47.0593C12.4221 54.2582 13.6297 59.8548 16.0448 63.849C18.4599 67.7968 21.8039 69.7707 26.0768 69.7707C30.3961 69.7707 33.7401 67.7968 36.1088 63.849C38.4775 59.8548 39.6618 54.2582 39.6618 47.0593C39.6618 39.8604 38.4775 34.2871 36.1088 30.3393C33.7401 26.3916 30.3961 24.4177 26.0768 24.4177C21.8039 24.4177 18.4599 26.3916 16.0448 30.3393ZM68.2442 72V55.9767H44.9755V53.399L69.2195 21.7703H71.5882V52.9113H79.5302V55.9767H71.5882V72H68.2442ZM68.2442 52.9113V27.6223L48.7375 52.9113H68.2442Z" fill="#2D2D2D"/>
</svg>
