<svg width="87" height="99" viewBox="0 0 87 99" fill="none" xmlns="http://www.w3.org/2000/svg">
<ellipse cx="69.0002" cy="59.6515" rx="17.6911" ry="17.5" fill="#9980FF"/>
<path d="M25.6346 72.836C20.4793 72.836 16.2993 70.537 13.0946 65.939C9.93637 61.2946 8.35726 54.9781 8.35726 46.9897C8.35726 38.9548 9.86671 32.6848 12.8856 28.1797C15.9509 23.6281 20.2006 21.3523 25.6346 21.3523C31.0686 21.3523 35.295 23.6281 38.3139 28.1797C41.3328 32.6848 42.8423 38.9548 42.8423 46.9897C42.8423 54.9781 41.2632 61.2946 38.1049 65.939C34.9467 70.537 30.7899 72.836 25.6346 72.836ZM15.6026 30.3393C13.1875 34.2871 11.9799 39.8604 11.9799 47.0593C11.9799 54.2582 13.1875 59.8548 15.6026 63.849C18.0177 67.7968 21.3617 69.7707 25.6346 69.7707C29.9539 69.7707 33.2979 67.7968 35.6666 63.849C38.0353 59.8548 39.2196 54.2582 39.2196 47.0593C39.2196 39.8604 38.0353 34.2871 35.6666 30.3393C33.2979 26.3916 29.9539 24.4177 25.6346 24.4177C21.3617 24.4177 18.0177 26.3916 15.6026 30.3393ZM73.9326 22.1883V24.975H54.635L53.799 36.1217C67.8252 39.0941 74.8383 45.8286 74.8383 56.325C74.8383 60.6443 73.3521 64.476 70.3796 67.82C67.4536 71.164 63.2272 72.836 57.7003 72.836C53.381 72.836 49.6886 72.0697 46.6233 70.537L47.738 67.82C50.9891 69.1204 54.0776 69.7707 57.0036 69.7707C59.9296 69.7707 62.2983 69.3527 64.1096 68.5167C65.9674 67.6807 67.384 66.566 68.3593 65.1727C70.2635 62.5253 71.2156 59.5761 71.2156 56.325C71.2156 46.8039 64.2258 40.9519 50.246 38.769L51.6393 22.1883H73.9326Z" fill="#2D2D2D"/>
</svg>
