<svg width="90" height="99" viewBox="0 0 90 99" fill="none" xmlns="http://www.w3.org/2000/svg">
<ellipse cx="72.0002" cy="59.6515" rx="17.6911" ry="17.5" fill="#9980FF"/>
<path d="M24.1378 72.836C18.9825 72.836 14.8025 70.537 11.5978 65.939C8.43963 61.2946 6.86052 54.9781 6.86052 46.9897C6.86052 38.9548 8.36996 32.6848 11.3888 28.1797C14.4542 23.6281 18.7038 21.3523 24.1378 21.3523C29.5718 21.3523 33.7983 23.6281 36.8172 28.1797C39.8361 32.6848 41.3455 38.9548 41.3455 46.9897C41.3455 54.9781 39.7664 61.2946 36.6082 65.939C33.45 70.537 29.2932 72.836 24.1378 72.836ZM14.1058 30.3393C11.6907 34.2871 10.4832 39.8604 10.4832 47.0593C10.4832 54.2582 11.6907 59.8548 14.1058 63.849C16.521 67.7968 19.865 69.7707 24.1378 69.7707C28.4572 69.7707 31.8012 67.7968 34.1698 63.849C36.5385 59.8548 37.7228 54.2582 37.7228 47.0593C37.7228 39.8604 36.5385 34.2871 34.1698 30.3393C31.8012 26.3916 28.4572 24.4177 24.1378 24.4177C19.865 24.4177 16.521 26.3916 14.1058 30.3393ZM49.8639 53.4687C49.8639 59.1813 51.025 63.3381 53.3472 65.939C55.6695 68.4934 58.5955 69.7707 62.1252 69.7707C65.7015 69.7707 68.6275 68.5167 70.9032 66.0087C73.179 63.5007 74.3169 60.505 74.3169 57.0217C74.3169 53.5383 73.3648 50.7052 71.4606 48.5223C69.5563 46.293 67.0019 45.1783 63.7972 45.1783C60.639 45.1783 57.3415 46.0143 53.9046 47.6863L52.9989 45.5267C56.9931 43.4367 60.9873 42.3917 64.9816 42.3917C69.0222 42.3917 72.1805 43.7618 74.4562 46.502C76.732 49.1958 77.8699 52.6791 77.8699 56.952C77.8699 61.1784 76.3605 64.894 73.3416 68.0987C70.3227 71.2569 66.6536 72.836 62.3342 72.836C57.9685 72.836 54.2993 71.4891 51.3269 68.7953C47.9365 65.7764 46.2412 60.6676 46.2412 53.4687C46.2412 50.0318 46.7289 46.7574 47.7042 43.6457C48.6796 40.4874 49.8407 37.8401 51.1876 35.7037C52.5345 33.5208 54.2529 31.3843 56.3429 29.2943C58.4793 27.1579 60.3139 25.5091 61.8466 24.348C63.4257 23.1404 65.2602 21.84 67.3502 20.4467L68.8132 22.676C66.3981 24.2551 64.2617 25.8574 62.4039 27.483C60.5461 29.0621 58.5722 31.1289 56.4822 33.6833C52.07 39.0244 49.8639 45.6196 49.8639 53.4687Z" fill="#2D2D2D"/>
</svg>
