<svg width="355" height="117" viewBox="0 0 355 117" fill="none" xmlns="http://www.w3.org/2000/svg">
<g clip-path="url(#clip0_229_83)">
<path d="M34.6653 17.1212C34.923 16.9633 35.2442 16.9503 35.5137 17.0869L73.5937 36.3872C73.8869 36.5358 74.0714 36.8369 74.0707 37.1655L73.9794 79.8572C73.9788 80.1594 73.8214 80.4397 73.5637 80.5976L67.0162 84.6099C66.4355 84.9658 65.6894 84.5469 65.6909 83.8658L65.7799 42.2462C65.7806 41.9175 65.5961 41.6164 65.3029 41.4678L28.1791 22.6522C27.5716 22.3443 27.5371 21.4894 28.1178 21.1335L34.6653 17.1212Z" fill="#3F11A1"/>
<path d="M22.2071 24.7556C22.4648 24.5977 22.7859 24.5848 23.0555 24.7214L61.1355 44.0217C61.4287 44.1703 61.6132 44.4713 61.6125 44.8L61.5212 87.4917C61.5205 87.7939 61.3632 88.0741 61.1055 88.2321L54.558 92.2444C53.9772 92.6003 53.2312 92.1814 53.2326 91.5003L53.3216 49.8806C53.3223 49.552 53.1378 49.2509 52.8447 49.1023L15.7209 30.2867C15.1133 29.9787 15.0788 29.1238 15.6596 28.768L22.2071 24.7556Z" fill="#5A16EB"/>
<path d="M9.74895 32.39C10.0066 32.2321 10.3278 32.2192 10.5973 32.3558L48.6773 51.6561C48.9705 51.8047 49.155 52.1057 49.1543 52.4344L49.063 95.1261C49.0624 95.4283 48.905 95.7085 48.6473 95.8664L42.0998 99.8788C41.5191 100.235 40.773 99.8158 40.7745 99.1347L40.8635 57.515C40.8642 57.1863 40.6797 56.8853 40.3865 56.7367L3.26272 37.9211C2.65518 37.6131 2.62067 36.7582 3.20142 36.4024L9.74895 32.39Z" fill="#6D28D9"/>
<path d="M34.6653 17.1212C34.923 16.9633 35.2442 16.9503 35.5137 17.0869L73.5937 36.3872C73.8869 36.5358 74.0714 36.8369 74.0707 37.1655L73.9794 79.8572C73.9788 80.1594 73.8214 80.4397 73.5637 80.5976L67.0162 84.6099C66.4355 84.9658 65.6894 84.5469 65.6909 83.8658L65.7799 42.2462C65.7806 41.9175 65.5961 41.6164 65.3029 41.4678L28.1791 22.6522C27.5716 22.3443 27.5371 21.4894 28.1178 21.1335L34.6653 17.1212Z" fill="#3F11A1"/>
<path d="M22.2071 24.7556C22.4648 24.5977 22.7859 24.5848 23.0555 24.7214L61.1355 44.0217C61.4287 44.1703 61.6132 44.4713 61.6125 44.8L61.5212 87.4917C61.5205 87.7939 61.3632 88.0741 61.1055 88.2321L54.558 92.2444C53.9772 92.6003 53.2312 92.1814 53.2326 91.5003L53.3216 49.8806C53.3223 49.552 53.1378 49.2509 52.8447 49.1023L15.7209 30.2867C15.1133 29.9787 15.0788 29.1238 15.6596 28.768L22.2071 24.7556Z" fill="#5A16EB"/>
<path d="M9.74895 32.39C10.0066 32.2321 10.3278 32.2192 10.5973 32.3558L48.6773 51.6561C48.9705 51.8047 49.155 52.1057 49.1543 52.4344L49.063 95.1261C49.0624 95.4283 48.905 95.7085 48.6473 95.8664L42.0998 99.8788C41.5191 100.235 40.773 99.8158 40.7745 99.1347L40.8635 57.515C40.8642 57.1863 40.6797 56.8853 40.3865 56.7367L3.26272 37.9211C2.65518 37.6131 2.62067 36.7582 3.20142 36.4024L9.74895 32.39Z" fill="#6D28D9"/>
<path d="M34.6653 17.1212C34.923 16.9633 35.2442 16.9503 35.5137 17.0869L73.5937 36.3872C73.8869 36.5358 74.0714 36.8369 74.0707 37.1655L73.9794 79.8572C73.9788 80.1594 73.8214 80.4397 73.5637 80.5976L67.0162 84.6099C66.4355 84.9658 65.6894 84.5469 65.6909 83.8658L65.7799 42.2462C65.7806 41.9175 65.5961 41.6164 65.3029 41.4678L28.1791 22.6522C27.5716 22.3443 27.5371 21.4894 28.1178 21.1335L34.6653 17.1212Z" fill="#3F11A1"/>
<path d="M22.2071 24.7556C22.4648 24.5977 22.7859 24.5848 23.0555 24.7214L61.1355 44.0217C61.4287 44.1703 61.6132 44.4713 61.6125 44.8L61.5212 87.4917C61.5205 87.7939 61.3632 88.0741 61.1055 88.2321L54.558 92.2444C53.9772 92.6003 53.2312 92.1814 53.2326 91.5003L53.3216 49.8806C53.3223 49.552 53.1378 49.2509 52.8447 49.1023L15.7209 30.2867C15.1133 29.9787 15.0788 29.1238 15.6596 28.768L22.2071 24.7556Z" fill="#5A16EB"/>
<path d="M9.74895 32.39C10.0066 32.2321 10.3278 32.2192 10.5973 32.3558L48.6773 51.6561C48.9705 51.8047 49.155 52.1057 49.1543 52.4344L49.063 95.1261C49.0624 95.4283 48.905 95.7085 48.6473 95.8664L42.0998 99.8788C41.5191 100.235 40.773 99.8158 40.7745 99.1347L40.8635 57.515C40.8642 57.1863 40.6797 56.8853 40.3865 56.7367L3.26272 37.9211C2.65518 37.6131 2.62067 36.7582 3.20142 36.4024L9.74895 32.39Z" fill="#6D28D9"/>
<path fill-rule="evenodd" clip-rule="evenodd" d="M34.6652 17.1215C34.9229 16.9636 35.2441 16.9506 35.5136 17.0872L73.5936 36.3875C73.8868 36.5361 74.0713 36.8372 74.0706 37.1658L73.9793 79.8575C73.9787 80.1597 73.8213 80.44 73.5636 80.5979L67.0161 84.6102C66.4354 84.9661 65.6893 84.5472 65.6908 83.8661L65.7798 42.2465C65.7805 41.9178 65.596 41.6167 65.3028 41.4681L28.179 22.6525C27.5715 22.3446 27.537 21.4897 28.1177 21.1338L34.6652 17.1215ZM22.207 24.7559C22.4647 24.598 22.7858 24.5851 23.0554 24.7217L61.1354 44.022C61.4286 44.1706 61.6131 44.4716 61.6124 44.8003L61.5211 87.492C61.5204 87.7942 61.3631 88.0744 61.1054 88.2323L54.5579 92.2447C53.9771 92.6006 53.2311 92.1817 53.2325 91.5006L53.3215 49.8809C53.3222 49.5522 53.1377 49.2512 52.8446 49.1026L15.7208 30.287C15.1132 29.979 15.0787 29.1241 15.6595 28.7683L22.207 24.7559ZM10.5972 32.3561C10.3277 32.2195 10.0065 32.2324 9.74886 32.3903L3.20132 36.4027C2.62058 36.7585 2.65508 37.6134 3.26262 37.9213L40.3864 56.737C40.6796 56.8856 40.8641 57.1866 40.8634 57.5153L40.7744 99.135C40.7729 99.8161 41.519 100.235 42.0997 99.8791L48.6473 95.8667C48.9049 95.7088 49.0623 95.4286 49.0629 95.1264L49.1542 52.4347C49.1549 52.106 48.9704 51.805 48.6772 51.6564L10.5972 32.3561ZM12.815 55.8118C12.4421 55.6227 12.0014 55.8966 12.006 56.3148L12.19 73.2299C12.1944 73.6358 12.4192 74.0072 12.7768 74.1993L27.6664 82.1994C28.0376 82.3988 28.4872 82.13 28.4872 81.7086L28.4872 64.443C28.4872 64.0232 28.2513 63.6391 27.8769 63.4492L12.815 55.8118Z" fill="url(#paint0_linear_229_83)"/>
<path d="M12.0061 56.3144C12.0016 55.8963 12.4422 55.6224 12.8152 55.8115L27.877 63.4489C28.2514 63.6388 28.4873 64.0229 28.4873 64.4427L28.4873 81.7083C28.4873 82.1296 28.0377 82.3985 27.6665 82.1991L12.7769 74.199C12.4193 74.0069 12.1945 73.6355 12.1901 73.2296L12.0061 56.3144Z" fill="#6D28D9"/>
<path d="M108.49 60.9322L125.387 40.8703H136.538L115.697 66.6294L136.538 84.5H124.072L108.49 72.0344V84.5H99.1411V28.4047H108.49V60.9322ZM152.993 62.6852C152.993 66.1262 154.21 69.0641 156.645 71.4988C159.079 73.9334 162.017 75.1508 165.458 75.1508C168.899 75.1508 171.837 73.9334 174.272 71.4988C176.706 69.0641 177.924 66.1262 177.924 62.6852V40.8703H187.273V62.6852C187.273 68.7232 185.147 73.8685 180.894 78.1211C176.642 82.3737 171.496 84.5 165.458 84.5C159.42 84.5 154.275 82.3737 150.022 78.1211C145.77 73.8685 143.643 68.7232 143.643 62.6852V40.8703H152.993V62.6852ZM228.123 71.4988C230.558 69.0641 231.775 66.1262 231.775 62.6852C231.775 59.2441 230.558 56.3063 228.123 53.8716C225.689 51.4369 222.751 50.2196 219.31 50.2196C215.869 50.2196 212.931 51.4369 210.496 53.8716C208.061 56.3063 206.844 59.2441 206.844 62.6852C206.844 66.1262 208.061 69.0641 210.496 71.4988C212.931 73.9334 215.869 75.1508 219.31 75.1508C222.751 75.1508 225.689 73.9334 228.123 71.4988ZM206.844 44.7172C210.447 42.1526 214.603 40.8703 219.31 40.8703C225.348 40.8703 230.493 42.9966 234.746 47.2492C238.998 51.5018 241.124 56.6471 241.124 62.6852C241.124 68.7232 238.998 73.8685 234.746 78.1211C230.493 82.3737 225.348 84.5 219.31 84.5C213.272 84.5 208.126 82.3737 203.874 78.1211C199.621 73.8685 197.495 68.7232 197.495 62.6852V28.4047H206.844V44.7172ZM273.161 84.5C267.123 84.5 261.978 82.3737 257.725 78.1211C253.473 73.8685 251.346 68.7232 251.346 62.6852C251.346 56.6471 253.473 51.5018 257.725 47.2492C261.978 42.9966 267.123 40.8703 273.161 40.8703C279.199 40.8703 284.344 42.9966 288.597 47.2492C292.85 51.5018 294.976 56.6471 294.976 62.6852C294.976 68.7232 292.85 73.8685 288.597 78.1211C284.344 82.3737 279.199 84.5 273.161 84.5ZM273.161 75.1508C276.602 75.1508 279.54 73.9334 281.975 71.4988C284.409 69.0641 285.627 66.1262 285.627 62.6852C285.627 59.2441 284.409 56.3063 281.975 53.8716C279.54 51.4369 276.602 50.2196 273.161 50.2196C269.72 50.2196 266.782 51.4369 264.348 53.8716C261.913 56.3063 260.695 59.2441 260.695 62.6852C260.695 66.1262 261.913 69.0641 264.348 71.4988C266.782 73.9334 269.72 75.1508 273.161 75.1508Z" fill="white"/>
<path d="M312.596 65.9037V70.291H314.972C316.609 70.291 317.549 70.0995 317.793 69.7165C318.071 69.2812 318.211 68.8111 318.211 68.3063C318.211 66.7045 317.183 65.9037 315.129 65.9037H312.596ZM312.988 74.6261H312.596V79.9014H307.53V61.6208H315.965C318.951 61.6208 320.97 62.4913 322.023 64.2323C322.824 65.2508 323.225 66.4869 323.225 67.9406V68.254C323.225 71.2137 321.654 73.2072 318.511 74.2344C321.018 77.4553 322.711 79.3442 323.59 79.9014H317.453C316.609 79.3617 315.12 77.6032 312.988 74.6261ZM332.675 72.9286V79.9014H327.452V61.6208H332.675V68.5935H337.898V61.6208H343.121V79.9014H337.898V72.9286H332.675Z" fill="#3F11A1"/>
</g>
<defs>
<linearGradient id="paint0_linear_229_83" x1="116.49" y1="-11.0896" x2="19.8473" y2="52.5456" gradientUnits="userSpaceOnUse">
<stop stop-color="#0905E6"/>
<stop offset="1" stop-color="#6D28D9"/>
</linearGradient>
<clipPath id="clip0_229_83">
<rect width="354.415" height="117" fill="white"/>
</clipPath>
</defs>
</svg>
