<svg width="355" height="118" viewBox="0 0 355 118" fill="none" xmlns="http://www.w3.org/2000/svg">
<g clip-path="url(#clip0_229_82)">
<path d="M34.6986 17.138C34.9565 16.98 35.278 16.967 35.5478 17.1038L73.6643 36.4226C73.9578 36.5713 74.1425 36.8727 74.1418 37.2016L74.0504 79.9343C74.0497 80.2368 73.8922 80.5173 73.6343 80.6754L67.0805 84.6915C66.4992 85.0478 65.7524 84.6285 65.7539 83.9467L65.843 42.2871C65.8437 41.9581 65.659 41.6568 65.3656 41.5081L28.2062 22.6744C27.598 22.3662 27.5635 21.5105 28.1448 21.1542L34.6986 17.138Z" fill="#6828FF"/>
<path d="M22.2284 24.7798C22.4864 24.6218 22.8078 24.6088 23.0776 24.7456L61.1942 44.0644C61.4876 44.2131 61.6723 44.5144 61.6716 44.8434L61.5802 87.5761C61.5796 87.8786 61.4221 88.1591 61.1641 88.3171L54.6103 92.3333C54.029 92.6895 53.2823 92.2703 53.2837 91.5885L53.3728 49.9289C53.3735 49.5999 53.1888 49.2986 52.8954 49.1499L15.736 30.3162C15.1278 30.0079 15.0933 29.1522 15.6746 28.796L22.2284 24.7798Z" fill="#6828FF"/>
<path d="M9.75831 32.4215C10.0162 32.2635 10.3377 32.2505 10.6075 32.3873L48.724 51.7061C49.0175 51.8548 49.2022 52.1562 49.2015 52.4851L49.1101 95.2178C49.1094 95.5203 48.952 95.8008 48.694 95.9589L42.1402 99.975C41.5589 100.331 40.8121 99.912 40.8136 99.2302L40.9027 57.5706C40.9034 57.2416 40.7187 56.9403 40.4253 56.7916L3.26586 37.9579C2.65773 37.6497 2.6232 36.794 3.2045 36.4377L9.75831 32.4215Z" fill="#6828FF"/>
<path d="M34.6986 17.1371C34.9565 16.979 35.278 16.966 35.5478 17.1028L73.6643 36.4216C73.9578 36.5703 74.1425 36.8717 74.1418 37.2007L74.0504 79.9333C74.0497 80.2358 73.8922 80.5163 73.6343 80.6744L67.0805 84.6906C66.4992 85.0468 65.7524 84.6275 65.7539 83.9458L65.843 42.2862C65.8437 41.9572 65.659 41.6558 65.3656 41.5071L28.2062 22.6734C27.598 22.3652 27.5635 21.5095 28.1448 21.1533L34.6986 17.1371Z" fill="#6828FF"/>
<path d="M22.2284 24.7789C22.4864 24.6208 22.8078 24.6078 23.0776 24.7446L61.1942 44.0634C61.4876 44.2121 61.6723 44.5135 61.6716 44.8425L61.5802 87.5751C61.5796 87.8776 61.4221 88.1581 61.1641 88.3162L54.6103 92.3323C54.029 92.6886 53.2823 92.2693 53.2837 91.5875L53.3728 49.928C53.3735 49.599 53.1888 49.2976 52.8954 49.1489L15.736 30.3152C15.1278 30.007 15.0933 29.1513 15.6746 28.795L22.2284 24.7789Z" fill="#6828FF"/>
<path d="M9.75831 32.4206C10.0162 32.2625 10.3377 32.2495 10.6075 32.3863L48.724 51.7051C49.0175 51.8538 49.2022 52.1552 49.2015 52.4842L49.1101 95.2168C49.1094 95.5193 48.952 95.7998 48.694 95.9579L42.1402 99.9741C41.5589 100.33 40.8121 99.911 40.8136 99.2293L40.9027 57.5697C40.9034 57.2407 40.7187 56.9393 40.4253 56.7906L3.26586 37.9569C2.65773 37.6487 2.6232 36.793 3.2045 36.4368L9.75831 32.4206Z" fill="#6828FF"/>
<path d="M34.6986 17.1371C34.9565 16.979 35.278 16.966 35.5478 17.1028L73.6643 36.4216C73.9578 36.5703 74.1425 36.8717 74.1418 37.2007L74.0504 79.9333C74.0497 80.2358 73.8922 80.5163 73.6343 80.6744L67.0805 84.6906C66.4992 85.0468 65.7524 84.6275 65.7539 83.9458L65.843 42.2862C65.8437 41.9572 65.659 41.6558 65.3656 41.5071L28.2062 22.6734C27.598 22.3652 27.5635 21.5095 28.1448 21.1533L34.6986 17.1371Z" fill="#6828FF"/>
<path d="M22.2284 24.7789C22.4864 24.6208 22.8078 24.6078 23.0776 24.7446L61.1942 44.0634C61.4876 44.2121 61.6723 44.5135 61.6716 44.8425L61.5802 87.5751C61.5796 87.8776 61.4221 88.1581 61.1641 88.3162L54.6103 92.3323C54.029 92.6886 53.2823 92.2693 53.2837 91.5875L53.3728 49.928C53.3735 49.599 53.1888 49.2976 52.8954 49.1489L15.736 30.3152C15.1278 30.007 15.0933 29.1513 15.6746 28.795L22.2284 24.7789Z" fill="#6828FF"/>
<path d="M9.75831 32.4206C10.0162 32.2625 10.3377 32.2495 10.6075 32.3863L48.724 51.7051C49.0175 51.8538 49.2022 52.1552 49.2015 52.4842L49.1101 95.2168C49.1094 95.5193 48.952 95.7998 48.694 95.9579L42.1402 99.9741C41.5589 100.33 40.8121 99.911 40.8136 99.2293L40.9027 57.5697C40.9034 57.2407 40.7187 56.9393 40.4253 56.7906L3.26586 37.9569C2.65773 37.6487 2.6232 36.793 3.2045 36.4368L9.75831 32.4206Z" fill="#6828FF"/>
<path fill-rule="evenodd" clip-rule="evenodd" d="M34.6985 17.1372C34.9564 16.9791 35.2779 16.9662 35.5477 17.1029L73.6642 36.4217C73.9577 36.5704 74.1424 36.8718 74.1417 37.2008L74.0503 79.9334C74.0497 80.2359 73.8922 80.5164 73.6342 80.6745L67.0804 84.6907C66.4991 85.0469 65.7524 84.6276 65.7538 83.9459L65.8429 42.2863C65.8436 41.9573 65.6589 41.656 65.3655 41.5072L28.2061 22.6735C27.5979 22.3653 27.5634 21.5096 28.1447 21.1534L34.6985 17.1372ZM22.2283 24.779C22.4863 24.6209 22.8077 24.6079 23.0775 24.7447L61.1941 44.0635C61.4875 44.2122 61.6722 44.5136 61.6715 44.8426L61.5801 87.5752C61.5795 87.8777 61.422 88.1582 61.164 88.3163L54.6102 92.3325C54.0289 92.6887 53.2822 92.2694 53.2836 91.5877L53.3727 49.9281C53.3734 49.5991 53.1887 49.2977 52.8953 49.149L15.7359 30.3153C15.1278 30.0071 15.0932 29.1514 15.6745 28.7952L22.2283 24.779ZM10.6074 32.3864C10.3376 32.2497 10.0161 32.2626 9.75822 32.4207L3.20441 36.4369C2.62311 36.7931 2.65764 37.6488 3.26577 37.957L40.4252 56.7907C40.7186 56.9395 40.9033 57.2408 40.9026 57.5698L40.8135 99.2294C40.8121 99.9111 41.5588 100.33 42.1401 99.9742L48.6939 95.958C48.9519 95.7999 49.1094 95.5194 49.11 95.2169L49.2014 52.4843C49.2021 52.1553 49.0174 51.854 48.7239 51.7052L10.6074 32.3864ZM12.8273 55.8647C12.454 55.6753 12.013 55.9495 12.0175 56.3681L12.2017 73.2995C12.2061 73.7058 12.4312 74.0775 12.7891 74.2698L27.693 82.2775C28.0645 82.4772 28.5146 82.2081 28.5146 81.7863L28.5146 64.5041C28.5146 64.084 28.2784 63.6994 27.9037 63.5094L12.8273 55.8647Z" fill="url(#paint0_linear_229_82)"/>
<path d="M12.0175 56.3683C12.0129 55.9497 12.454 55.6755 12.8273 55.8648L27.9036 63.5096C28.2784 63.6996 28.5145 64.0841 28.5145 64.5043L28.5145 81.7865C28.5145 82.2082 28.0645 82.4773 27.693 82.2777L12.7891 74.27C12.4311 74.0777 12.2061 73.7059 12.2017 73.2997L12.0175 56.3683Z" fill="#6828FF"/>
<path d="M108.594 60.9653L125.507 40.8842H136.669L115.808 66.6679L136.669 84.5557H124.191L108.594 72.0781V84.5557H99.2361V28.4066H108.594V60.9653ZM153.139 62.7199C153.139 66.1642 154.358 69.1049 156.795 71.5419C159.232 73.979 162.172 75.1975 165.617 75.1975C169.061 75.1975 172.002 73.979 174.439 71.5419C176.876 69.1049 178.094 66.1642 178.094 62.7199V40.8842H187.453V62.7199C187.453 68.7637 185.324 73.914 181.068 78.1707C176.811 82.4273 171.661 84.5557 165.617 84.5557C159.573 84.5557 154.423 82.4273 150.166 78.1707C145.909 73.914 143.781 68.7637 143.781 62.7199V40.8842H153.139V62.7199ZM228.342 71.5419C230.779 69.1049 231.997 66.1642 231.997 62.7199C231.997 59.2756 230.779 56.3349 228.342 53.8979C225.905 51.4609 222.964 50.2423 219.52 50.2423C216.076 50.2423 213.135 51.4609 210.698 53.8979C208.261 56.3349 207.042 59.2756 207.042 62.7199C207.042 66.1642 208.261 69.1049 210.698 71.5419C213.135 73.979 216.076 75.1975 219.52 75.1975C222.964 75.1975 225.905 73.979 228.342 71.5419ZM207.042 44.7347C210.649 42.1677 214.808 40.8842 219.52 40.8842C225.564 40.8842 230.714 43.0125 234.971 47.2692C239.227 51.5258 241.356 56.6761 241.356 62.7199C241.356 68.7637 239.227 73.914 234.971 78.1707C230.714 82.4273 225.564 84.5557 219.52 84.5557C213.476 84.5557 208.326 82.4273 204.069 78.1707C199.812 73.914 197.684 68.7637 197.684 62.7199V28.4066H207.042V44.7347ZM273.423 84.5557C267.379 84.5557 262.229 82.4273 257.972 78.1707C253.716 73.914 251.587 68.7637 251.587 62.7199C251.587 56.6761 253.716 51.5258 257.972 47.2692C262.229 43.0125 267.379 40.8842 273.423 40.8842C279.467 40.8842 284.617 43.0125 288.874 47.2692C293.13 51.5258 295.259 56.6761 295.259 62.7199C295.259 68.7637 293.13 73.914 288.874 78.1707C284.617 82.4273 279.467 84.5557 273.423 84.5557ZM273.423 75.1975C276.867 75.1975 279.808 73.979 282.245 71.5419C284.682 69.1049 285.901 66.1642 285.901 62.7199C285.901 59.2756 284.682 56.3349 282.245 53.8979C279.808 51.4609 276.867 50.2423 273.423 50.2423C269.979 50.2423 267.038 51.4609 264.601 53.8979C262.164 56.3349 260.945 59.2756 260.945 62.7199C260.945 66.1642 262.164 69.1049 264.601 71.5419C267.038 73.979 269.979 75.1975 273.423 75.1975Z" fill="black"/>
<path d="M312.701 65.9137V70.3052H315.08C316.718 70.3052 317.659 70.1135 317.903 69.7301C318.181 69.2945 318.321 68.8239 318.321 68.3186C318.321 66.7153 317.293 65.9137 315.236 65.9137H312.701ZM313.093 74.6445H312.701V79.9248H307.63V61.6267H316.073C319.062 61.6267 321.083 62.498 322.137 64.2407C322.939 65.2602 323.34 66.4975 323.34 67.9526V68.2663C323.34 71.2288 321.767 73.2242 318.622 74.2524C321.131 77.4763 322.826 79.3671 323.706 79.9248H317.563C316.718 79.3846 315.228 77.6245 313.093 74.6445ZM332.799 72.9454V79.9248H327.571V61.6267H332.799V68.6061H338.027V61.6267H343.255V79.9248H338.027V72.9454H332.799Z" fill="#3F11A1"/>
</g>
<defs>
<linearGradient id="paint0_linear_229_82" x1="116.602" y1="-11.1009" x2="19.8664" y2="52.5953" gradientUnits="userSpaceOnUse">
<stop stop-color="#0905E6"/>
<stop offset="1" stop-color="#6828FF"/>
</linearGradient>
<clipPath id="clip0_229_82">
<rect width="354.56" height="117.112" fill="white"/>
</clipPath>
</defs>
</svg>
